<svg width="19" height="19" viewBox="0 0 19 19" fill="none" xmlns="http://www.w3.org/2000/svg">
<path d="M17.5001 1H18.5001C18.5001 0.734784 18.3947 0.48043 18.2072 0.292893C18.0197 0.105357 17.7653 0 17.5001 0V1ZM16.5001 13C16.5001 13.2652 16.6054 13.5196 16.793 13.7071C16.9805 13.8946 17.2349 14 17.5001 14C17.7653 14 18.0197 13.8946 18.2072 13.7071C18.3947 13.5196 18.5001 13.2652 18.5001 13H16.5001ZM5.50008 0C5.23486 0 4.98051 0.105357 4.79297 0.292893C4.60544 0.48043 4.50008 0.734784 4.50008 1C4.50008 1.26522 4.60544 1.51957 4.79297 1.70711C4.98051 1.89464 5.23486 2 5.50008 2V0ZM0.793081 16.293C0.697571 16.3852 0.621389 16.4956 0.56898 16.6176C0.516571 16.7396 0.488985 16.8708 0.487831 17.0036C0.486677 17.1364 0.511979 17.2681 0.56226 17.391C0.61254 17.5138 0.686794 17.6255 0.780686 17.7194C0.874579 17.8133 0.986231 17.8875 1.10913 17.9378C1.23202 17.9881 1.3637 18.0134 1.49648 18.0123C1.62926 18.0111 1.76048 17.9835 1.88249 17.9311C2.00449 17.8787 2.11483 17.8025 2.20708 17.707L0.793081 16.293ZM16.5001 1V13H18.5001V1H16.5001ZM17.5001 0H5.50008V2H17.5001V0ZM16.7931 0.293L0.793081 16.293L2.20708 17.707L18.2071 1.707L16.7931 0.293Z" fill="#D1D5DB"/>
</svg>
