<svg width="20" height="20" viewBox="0 0 20 20" fill="none" xmlns="http://www.w3.org/2000/svg">
<path d="M6.48047 16.0443C6.48047 16.1224 6.39062 16.1849 6.27734 16.1849C6.14844 16.1967 6.05859 16.1342 6.05859 16.0443C6.05859 15.9662 6.14844 15.9037 6.26172 15.9037C6.37891 15.892 6.48047 15.9545 6.48047 16.0443ZM5.26562 15.8685C5.23828 15.9467 5.31641 16.0365 5.43359 16.0599C5.53516 16.099 5.65234 16.0599 5.67578 15.9818C5.69922 15.9037 5.625 15.8138 5.50781 15.7787C5.40625 15.7513 5.29297 15.7904 5.26562 15.8685ZM6.99219 15.8021C6.87891 15.8295 6.80078 15.9037 6.8125 15.9935C6.82422 16.0717 6.92578 16.1224 7.04297 16.0951C7.15625 16.0677 7.23438 15.9935 7.22266 15.9154C7.21094 15.8412 7.10547 15.7904 6.99219 15.8021ZM9.5625 0.833374C4.14453 0.833374 0 4.94666 0 10.3646C0 14.6967 2.72656 18.4037 6.62109 19.7084C7.12109 19.7982 7.29688 19.4896 7.29688 19.2357C7.29688 18.9935 7.28516 17.6576 7.28516 16.8373C7.28516 16.8373 4.55078 17.4232 3.97656 15.6732C3.97656 15.6732 3.53125 14.5365 2.89062 14.2435C2.89062 14.2435 1.99609 13.6302 2.95312 13.642C2.95312 13.642 3.92578 13.7201 4.46094 14.6498C5.31641 16.1576 6.75 15.724 7.30859 15.4662C7.39844 14.8412 7.65234 14.4076 7.93359 14.1498C5.75 13.9076 3.54688 13.5912 3.54688 9.83337C3.54688 8.75916 3.84375 8.22009 4.46875 7.53259C4.36719 7.27869 4.03516 6.23181 4.57031 4.88025C5.38672 4.62634 7.26562 5.93494 7.26562 5.93494C8.04688 5.71619 8.88672 5.60291 9.71875 5.60291C10.5508 5.60291 11.3906 5.71619 12.1719 5.93494C12.1719 5.93494 14.0508 4.62244 14.8672 4.88025C15.4023 6.23572 15.0703 7.27869 14.9688 7.53259C15.5938 8.224 15.9766 8.76306 15.9766 9.83337C15.9766 13.6029 13.6758 13.9037 11.4922 14.1498C11.8516 14.4584 12.1562 15.0443 12.1562 15.9623C12.1562 17.2787 12.1445 18.9076 12.1445 19.2279C12.1445 19.4818 12.3242 19.7904 12.8203 19.7006C16.7266 18.4037 19.375 14.6967 19.375 10.3646C19.375 4.94666 14.9805 0.833374 9.5625 0.833374ZM3.79688 14.306C3.74609 14.3451 3.75781 14.4349 3.82422 14.5092C3.88672 14.5717 3.97656 14.599 4.02734 14.5482C4.07812 14.5092 4.06641 14.4193 4 14.3451C3.9375 14.2826 3.84766 14.2552 3.79688 14.306ZM3.375 13.9896C3.34766 14.0404 3.38672 14.1029 3.46484 14.142C3.52734 14.181 3.60547 14.1693 3.63281 14.1146C3.66016 14.0638 3.62109 14.0013 3.54297 13.9623C3.46484 13.9388 3.40234 13.9506 3.375 13.9896ZM4.64062 15.3802C4.57812 15.431 4.60156 15.5482 4.69141 15.6224C4.78125 15.7123 4.89453 15.724 4.94531 15.6615C4.99609 15.6107 4.97266 15.4935 4.89453 15.4193C4.80859 15.3295 4.69141 15.3177 4.64062 15.3802ZM4.19531 14.806C4.13281 14.8451 4.13281 14.9467 4.19531 15.0365C4.25781 15.1263 4.36328 15.1654 4.41406 15.1263C4.47656 15.0756 4.47656 14.974 4.41406 14.8842C4.35938 14.7943 4.25781 14.7552 4.19531 14.806Z" fill="#7A7A7A"/>
</svg>
